# xmcd CD database file
#
# Track frame offsets:
#	150
#	20415
#	34992
#	49127
#	66613
#	83935
#	99108
#	113059
#	130807
#	146306
#	156749
#	174532
#	190640
#	203344
#	218238
#	232345
#
# Disc length: 3418 seconds
#
# Revision: 0
# Processed by: cddbd v1.5.2PL0 Copyright (c) Steve Scherf et al.
# Submitted via: CDex 1.51
#
DISCID=e30d5810
DTITLE=VÁRIOS - DIREITO DE VIVER 10 CD 02
DYEAR=2011
DGENRE=SERTANEJO
TTITLE0=SOU UM ZÉ DA SILVA E OUTROS TANTOS
TTITLE1=DEUS ME LIVRE
TTITLE2=SE FOR PRA SER FELIZ
TTITLE3=DISPARADA
TTITLE4=AMORES IMORTAIS
TTITLE5=TÔ VOLTANDO
TTITLE6=DE TANTO TE QUERER
TTITLE7=JURO POR DEUS
TTITLE8=ESSE ALGUÉM SOU EU
TTITLE9=LÁGRIMAS QUE CHORAM
TTITLE10=TUA PALAVRA
TTITLE11=AMOR DE PRIMAVERA
TTITLE12=REI DOS REIS
TTITLE13=BORBOLETAS
TTITLE14=O QUE COMBINA COMIGO É VOCÊ
TTITLE15=DIA DO BEM
EXTD=YEAR: 2011
EXTT0=
EXTT1=
EXTT2=
EXTT3=
EXTT4=
EXTT5=
EXTT6=
EXTT7=
EXTT8=
EXTT9=
EXTT10=
EXTT11=
EXTT12=
EXTT13=
EXTT14=
EXTT15=
PLAYORDER=
